<svg width="18" height="17" viewBox="0 0 18 17" fill="none" xmlns="http://www.w3.org/2000/svg">
<path d="M14.6353 8.33287C14.6353 11.3248 12.1921 13.7614 9.16447 13.7614C6.1368 13.7614 3.6936 11.3248 3.6936 8.33287C3.6936 5.34092 6.1368 2.9043 9.16447 2.9043C12.1921 2.9043 14.6353 5.34092 14.6353 8.33287Z" stroke="white" stroke-width="2"/>
<path d="M16.5527 8.33333C16.5527 12.3772 13.2511 15.6667 9.16453 15.6667C5.07797 15.6667 1.77637 12.3772 1.77637 8.33333C1.77637 4.28942 5.07797 1 9.16453 1C13.2511 1 16.5527 4.28942 16.5527 8.33333Z" stroke="white" stroke-width="2"/>
<ellipse cx="9.16486" cy="8.33305" rx="1.19831" ry="1.19048" fill="white"/>
<path d="M10.1646 4.99967C10.1646 4.44739 9.71684 3.99967 9.16455 3.99967C8.61227 3.99967 8.16455 4.44739 8.16455 4.99967L10.1646 4.99967ZM8.16455 4.99967L8.16455 8.33301L10.1646 8.33301L10.1646 4.99967L8.16455 4.99967Z" fill="white"/>
<path d="M10.8564 11.4234C11.2482 11.8126 11.8813 11.8105 12.2706 11.4187C12.6598 11.0269 12.6578 10.3938 12.266 10.0045L10.8564 11.4234ZM8.45977 9.04243L10.8564 11.4234L12.266 10.0045L9.86934 7.62359L8.45977 9.04243Z" fill="white"/>
</svg>
