<svg width="17" height="19" viewBox="0 0 17 19" fill="none" xmlns="http://www.w3.org/2000/svg">
<path d="M6.62285 9.17943C7.75564 9.89786 9.14833 9.97554 10.4429 9.38818C10.7176 9.26197 10.8402 8.94158 10.7127 8.66975C10.5852 8.39791 10.2615 8.27656 9.98689 8.40277C9.04045 8.8348 8.03026 8.78626 7.21622 8.26685C6.4218 7.76202 5.94612 6.90767 5.94612 5.97566C5.94612 4.47571 7.17699 3.2573 8.69228 3.2573C10.2076 3.2573 11.4384 4.47571 11.4384 5.97566C11.4384 6.27663 11.1932 6.51933 10.8892 6.51933C10.6146 6.51933 10.3547 6.3106 10.34 5.98537C10.34 5.98051 10.34 5.98052 10.34 5.97566C10.34 5.07763 9.59949 4.34464 8.69228 4.34464C7.78507 4.34464 7.04459 5.07763 7.04459 5.97566C7.04459 6.87369 7.78507 7.60667 8.69228 7.60667C9.11401 7.60667 9.49651 7.45135 9.79074 7.18922C10.0801 7.44649 10.4675 7.60667 10.8892 7.60667C11.7964 7.60667 12.5369 6.87369 12.5369 5.97566C12.5369 3.87864 10.8156 2.1748 8.69228 2.1748C6.57382 2.1748 4.85257 3.87864 4.85257 5.97566C4.84766 7.27659 5.50968 8.47557 6.62285 9.17943ZM8.68737 6.51933C8.38334 6.51933 8.13814 6.27663 8.13814 5.97566C8.13814 5.6747 8.38334 5.43198 8.68737 5.43198C8.96689 5.43198 9.20228 5.64072 9.2317 5.91256C9.22189 5.9611 9.22189 6.01449 9.2268 6.06304C9.18757 6.32031 8.96199 6.51933 8.68737 6.51933Z" fill="white"/>
<path d="M16.9212 7.13569C16.9212 6.99492 16.8624 6.85414 16.7594 6.7522L14.7292 4.7377V0.54367C14.7292 0.242708 14.484 0 14.18 0H3.20026C2.89622 0 2.65102 0.242708 2.65102 0.54367V4.7377L0.615929 6.7522L0.611024 6.75706C0.508044 6.86385 0.454102 6.99977 0.454102 7.13569V16.9169C0.454102 17.815 1.19458 18.548 2.10179 18.548H15.2735C16.1807 18.548 16.9212 17.815 16.9212 16.9169V7.13569ZM15.5972 7.13569L14.7292 7.99489V6.27164L15.5972 7.13569ZM13.6307 1.08734V4.96101V9.08223L10.659 12.0239H6.72122L3.74949 9.08223V4.96101V1.08734H13.6307ZM2.65102 7.99489L1.78304 7.13569L2.65102 6.27164V7.99489ZM1.55256 16.6888V8.44633L5.71593 12.5676L1.55256 16.6888ZM2.33228 17.4558L6.72122 13.1112H10.659L15.0479 17.4558H2.33228ZM15.8228 16.6888L11.6594 12.5676L15.8228 8.44633V16.6888Z" fill="white"/>
</svg>
