<svg width="16" height="21" viewBox="0 0 16 21" fill="none" xmlns="http://www.w3.org/2000/svg">
<path d="M7.68778 0C3.6323 0 0.336914 3.26204 0.336914 7.27647C0.336914 8.6308 0.714511 9.956 1.43538 11.1016L7.27095 20.412C7.38374 20.5916 7.57989 20.6984 7.79076 20.6984H7.79566C8.01143 20.6984 8.20759 20.5867 8.31547 20.4023L14.0039 11.0045C14.6807 9.88318 15.0386 8.59197 15.0386 7.27647C15.0386 3.26204 11.7433 0 7.68778 0ZM12.9545 10.3783L7.78586 18.9217L2.4799 10.4608C1.88163 9.50456 1.55797 8.40265 1.55797 7.27161C1.55797 3.92706 4.31393 1.19899 7.69268 1.19899C11.0714 1.19899 13.8225 3.92706 13.8225 7.27161C13.8176 8.37352 13.5185 9.44631 12.9545 10.3783Z" fill="white"/>
<path d="M7.68763 3.63574C5.66234 3.63574 4.01465 5.26676 4.01465 7.2764C4.01465 9.27149 5.63782 10.9171 7.68763 10.9171C9.76686 10.9171 11.3655 9.25207 11.3655 7.2764C11.3655 5.26676 9.71782 3.63574 7.68763 3.63574ZM7.68763 9.70836C6.32926 9.70836 5.2308 8.61617 5.2308 7.2764C5.2308 5.93664 6.33907 4.84444 7.68763 4.84444C9.04109 4.84444 10.1445 5.94149 10.1445 7.2764C10.1445 8.59675 9.07051 9.70836 7.68763 9.70836Z" fill="white"/>
</svg>
