<svg width="20" height="20" viewBox="0 0 20 20" fill="none" xmlns="http://www.w3.org/2000/svg">
<path d="M18.7106 14.2197L16.3469 11.88C15.6947 11.2344 14.6355 11.2344 13.9833 11.88L12.9093 12.943C12.414 13.4333 11.6098 13.4333 11.1194 12.943L6.46077 8.32669C5.96548 7.83641 5.96548 7.04517 6.46077 6.5549C6.6324 6.385 7.13259 5.88987 7.53471 5.49183C8.18202 4.85107 8.19182 3.80256 7.53471 3.1521L5.17106 0.817216C4.51884 0.171605 3.45961 0.171605 2.8074 0.817216C2.32192 1.29293 2.165 1.44827 1.94432 1.66185C-0.404618 3.98702 -0.404618 7.77331 1.94432 10.1033L9.32461 17.4138C11.6785 19.7438 15.4937 19.7487 17.8524 17.4138L18.7106 16.5643C19.3628 15.9138 19.3628 14.8653 18.7106 14.2197ZM15.5574 12.6566L17.9211 14.9964C18.1368 15.21 18.1368 15.5595 17.9211 15.7779L17.5287 16.1662L14.3756 13.045L14.7679 12.6566C14.9886 12.4431 15.3416 12.4431 15.5574 12.6566ZM4.38154 1.59874L6.74519 3.93362C6.96096 4.14721 6.96096 4.49671 6.74519 4.71515L6.35288 5.10349L3.20461 1.98708L3.59692 1.6036C3.80778 1.38031 4.16086 1.38031 4.38154 1.59874ZM10.1141 16.6323L2.73384 9.3218C0.914516 7.52089 0.816439 4.69573 2.4249 2.77832L5.56827 5.88987C4.74442 6.81703 4.77875 8.2296 5.67125 9.11307L10.3299 13.7294C11.2224 14.6129 12.6494 14.6517 13.5861 13.8314L16.7294 16.9429C14.7924 18.5254 11.9433 18.4429 10.1141 16.6323Z" fill="white"/>
</svg>
