<svg width="30" height="30" viewBox="0 0 30 30" fill="none" xmlns="http://www.w3.org/2000/svg">
<g clip-path="url(#clip0_16_389)">
<path d="M15 7.19775C10.7661 7.19775 7.25806 10.6453 7.25806 14.9397C7.25806 19.234 10.7056 22.6816 15 22.6816C19.2943 22.6816 22.7419 19.1736 22.7419 14.9397C22.7419 10.7058 19.2339 7.19775 15 7.19775ZM15 19.8994C12.2782 19.8994 10.0403 17.6615 10.0403 14.9397C10.0403 12.2179 12.2782 9.98001 15 9.98001C17.7218 9.98001 19.9597 12.2179 19.9597 14.9397C19.9597 17.6615 17.7218 19.8994 15 19.8994Z" fill="white"/>
<path d="M23.0443 8.76978C24.013 8.76978 24.7983 7.98448 24.7983 7.01575C24.7983 6.04703 24.013 5.26172 23.0443 5.26172C22.0756 5.26172 21.2903 6.04703 21.2903 7.01575C21.2903 7.98448 22.0756 8.76978 23.0443 8.76978Z" fill="white"/>
<path d="M27.5806 2.47984C26.0081 0.846774 23.7702 0 21.2298 0H8.77016C3.50806 0 0 3.50806 0 8.77016V21.1694C0 23.7702 0.846774 26.0081 2.54032 27.6411C4.17339 29.2137 6.35081 30 8.83065 30H21.1694C23.7702 30 25.9476 29.1532 27.5202 27.6411C29.1532 26.0685 30 23.8306 30 21.2298V8.77016C30 6.22984 29.1532 4.05242 27.5806 2.47984ZM27.3387 21.2298C27.3387 23.1048 26.6734 24.6169 25.5847 25.6452C24.496 26.6734 22.9839 27.2177 21.1694 27.2177H8.83065C7.01613 27.2177 5.50403 26.6734 4.41532 25.6452C3.32661 24.5565 2.78226 23.0444 2.78226 21.1694V8.77016C2.78226 6.95564 3.32661 5.44355 4.41532 4.35484C5.44355 3.32661 7.01613 2.78226 8.83065 2.78226H21.2903C23.1048 2.78226 24.6169 3.32661 25.7056 4.41532C26.7339 5.50403 27.3387 7.01613 27.3387 8.77016V21.2298Z" fill="white"/>
</g>
<defs>
<clipPath id="clip0_16_389">
<rect width="30" height="30" fill="white"/>
</clipPath>
</defs>
</svg>
