<svg width="30" height="30" viewBox="0 0 30 30" fill="none" xmlns="http://www.w3.org/2000/svg">
<g clip-path="url(#clip0_16_374)">
<path fill-rule="evenodd" clip-rule="evenodd" d="M21.8728 17.9918C21.4995 17.805 19.6645 16.9022 19.3224 16.7775C18.9803 16.653 18.7315 16.5908 18.4827 16.9643C18.2339 17.3379 17.5186 18.1787 17.3009 18.4278C17.0832 18.6769 16.8654 18.7081 16.4923 18.5212C16.119 18.3344 14.9164 17.9403 13.4908 16.6687C12.3813 15.679 11.6322 14.4568 11.4145 14.0832C11.1968 13.7095 11.3913 13.5075 11.5781 13.3214C11.7461 13.1542 11.9514 12.8855 12.138 12.6675C12.3247 12.4497 12.3868 12.2939 12.5112 12.0449C12.6356 11.7958 12.5735 11.5779 12.4801 11.3911C12.3868 11.2043 11.6404 9.36713 11.3294 8.61971C11.0264 7.89203 10.7187 7.99059 10.4896 7.97904C10.2722 7.96826 10.023 7.96598 9.77432 7.96598C9.52553 7.96598 9.12111 8.05937 8.77898 8.43291C8.43691 8.80656 7.47275 9.70961 7.47275 11.5466C7.47275 13.3838 8.8101 15.1584 8.99672 15.4076C9.18334 15.6567 11.6285 19.4265 15.3727 21.0432C16.263 21.4278 16.9583 21.6574 17.5003 21.8294C18.3944 22.1135 19.208 22.0734 19.8512 21.9773C20.5682 21.8702 22.0593 21.0745 22.3704 20.2027C22.6813 19.3307 22.6813 18.5835 22.5881 18.4278C22.4948 18.2721 22.246 18.1787 21.8728 17.9918ZM15.0628 27.2903H15.0577C12.8299 27.2894 10.6448 26.6908 8.73867 25.5597L8.28527 25.2906L3.58641 26.5233L4.84061 21.9418L4.54547 21.4721C3.30264 19.4954 2.64621 17.2108 2.64721 14.8649C2.64996 8.01965 8.21947 2.45061 15.0677 2.45061C18.3838 2.45172 21.501 3.74482 23.8451 6.09156C26.1891 8.43824 27.4792 11.5575 27.4779 14.8749C27.4751 21.7206 21.9057 27.2903 15.0628 27.2903ZM25.6291 4.30838C22.8089 1.48498 19.0585 -0.070625 15.0626 -0.0722656C6.82934 -0.0722656 0.128496 6.62816 0.125156 14.8639C0.124102 17.4967 0.811875 20.0662 2.1191 22.3316L0 30.0719L7.91842 27.9948C10.1002 29.1848 12.5566 29.8121 15.0567 29.8129H15.0628C23.2952 29.8129 29.9966 23.1118 30 14.8759C30.0015 10.8846 28.4492 7.13178 25.6291 4.30838Z" fill="white"/>
</g>
<defs>
<clipPath id="clip0_16_374">
<rect width="30" height="30" fill="white"/>
</clipPath>
</defs>
</svg>
