<svg width="270" height="30" viewBox="0 0 270 30" fill="none" xmlns="http://www.w3.org/2000/svg">
<path d="M254.921 8.83594C251.217 8.83594 248.148 11.8518 248.148 15.6084C248.148 19.365 251.164 22.3809 254.921 22.3809C258.677 22.3809 261.693 19.3121 261.693 15.6084C261.693 11.9047 258.624 8.83594 254.921 8.83594ZM254.921 19.947C252.54 19.947 250.582 17.9894 250.582 15.6084C250.582 13.2275 252.54 11.2698 254.921 11.2698C257.302 11.2698 259.259 13.2275 259.259 15.6084C259.259 17.9894 257.302 19.947 254.921 19.947Z" fill="white"/>
<path d="M261.958 10.2114C262.805 10.2114 263.492 9.52439 263.492 8.67697C263.492 7.82955 262.805 7.14258 261.958 7.14258C261.11 7.14258 260.423 7.82955 260.423 8.67697C260.423 9.52439 261.11 10.2114 261.958 10.2114Z" fill="white"/>
<path d="M265.926 4.70886C264.55 3.28029 262.593 2.53955 260.37 2.53955H249.471C244.868 2.53955 241.799 5.60833 241.799 10.2115V21.0581C241.799 23.3332 242.54 25.2909 244.021 26.7194C245.45 28.0951 247.355 28.7829 249.524 28.7829H260.317C262.593 28.7829 264.497 28.0422 265.873 26.7194C267.302 25.3438 268.042 23.3861 268.042 21.111V10.2115C268.042 7.98929 267.302 6.08452 265.926 4.70886ZM265.714 21.111C265.714 22.7512 265.132 24.0739 264.18 24.9734C263.228 25.8729 261.905 26.3491 260.317 26.3491H249.524C247.937 26.3491 246.614 25.8729 245.661 24.9734C244.709 24.021 244.233 22.6983 244.233 21.0581V10.2115C244.233 8.62421 244.709 7.30146 245.661 6.34907C246.561 5.4496 247.937 4.97341 249.524 4.97341H260.423C262.011 4.97341 263.333 5.4496 264.286 6.40198C265.185 7.35437 265.714 8.67712 265.714 10.2115V21.111Z" fill="white"/>
<g clip-path="url(#clip0_16_394)">
<path d="M201.928 16.7476L202.755 11.3592H197.585V7.86252C197.585 6.38836 198.307 4.95146 200.623 4.95146H202.973V0.364102C202.973 0.364102 200.84 0 198.801 0C194.543 0 191.76 2.58059 191.76 7.25244V11.3592H187.027V16.7476H191.76V29.7735C192.709 29.9224 193.681 30 194.672 30C195.663 30 196.636 29.9224 197.585 29.7735V16.7476H201.928Z" fill="white"/>
</g>
<g clip-path="url(#clip1_16_394)">
<path fill-rule="evenodd" clip-rule="evenodd" d="M141.873 17.9918C141.5 17.805 139.665 16.9022 139.322 16.7775C138.98 16.653 138.732 16.5908 138.483 16.9643C138.234 17.3379 137.519 18.1787 137.301 18.4278C137.083 18.6769 136.865 18.7081 136.492 18.5212C136.119 18.3344 134.916 17.9403 133.491 16.6687C132.381 15.679 131.632 14.4568 131.415 14.0832C131.197 13.7095 131.391 13.5075 131.578 13.3214C131.746 13.1542 131.951 12.8855 132.138 12.6675C132.325 12.4497 132.387 12.2939 132.511 12.0449C132.636 11.7958 132.573 11.5779 132.48 11.3911C132.387 11.2043 131.64 9.36713 131.329 8.61971C131.026 7.89203 130.719 7.99059 130.49 7.97904C130.272 7.96826 130.023 7.96598 129.774 7.96598C129.526 7.96598 129.121 8.05937 128.779 8.43291C128.437 8.80656 127.473 9.70961 127.473 11.5466C127.473 13.3838 128.81 15.1584 128.997 15.4076C129.183 15.6567 131.629 19.4265 135.373 21.0432C136.263 21.4278 136.958 21.6574 137.5 21.8294C138.394 22.1135 139.208 22.0734 139.851 21.9773C140.568 21.8702 142.059 21.0745 142.37 20.2027C142.681 19.3307 142.681 18.5835 142.588 18.4278C142.495 18.2721 142.246 18.1787 141.873 17.9918ZM135.063 27.2903H135.058C132.83 27.2894 130.645 26.6908 128.739 25.5597L128.285 25.2906L123.586 26.5233L124.841 21.9418L124.545 21.4721C123.303 19.4954 122.646 17.2108 122.647 14.8649C122.65 8.01965 128.219 2.45061 135.068 2.45061C138.384 2.45172 141.501 3.74482 143.845 6.09156C146.189 8.43824 147.479 11.5575 147.478 14.8749C147.475 21.7206 141.906 27.2903 135.063 27.2903ZM145.629 4.30838C142.809 1.48498 139.058 -0.070625 135.063 -0.0722656C126.829 -0.0722656 120.128 6.62816 120.125 14.8639C120.124 17.4967 120.812 20.0662 122.119 22.3316L120 30.0719L127.918 27.9948C130.1 29.1848 132.557 29.8121 135.057 29.8129H135.063C143.295 29.8129 149.997 23.1118 150 14.8759C150.002 10.8846 148.449 7.13178 145.629 4.30838Z" fill="white"/>
</g>
<g clip-path="url(#clip2_16_394)">
<path d="M75.2707 2.18331C78.6044 2.31313 81.0046 3.22186 83.4049 5.03934C86.3386 7.11645 88.0721 10.1023 88.7388 13.7372C88.8722 14.7758 89.0055 15.5547 89.0055 16.7231C89.0055 17.6318 89.1389 17.8915 89.2722 18.1511C89.4056 18.4107 89.6723 18.5406 89.8056 18.5406C89.939 18.5406 90.0723 18.5406 90.0723 18.4107C90.339 18.2809 90.4724 17.8915 90.339 17.502C90.339 17.3722 90.2057 17.2424 90.2057 16.5933C90.2057 15.2951 90.0723 14.5162 89.8056 13.4776C89.0055 9.4532 87.1387 6.20771 83.9383 4.00078C81.2713 2.05349 78.6044 1.14475 75.004 0.885114C73.9372 0.885114 73.8038 0.755295 73.8038 0.755295C73.5371 0.495656 73.1371 0.625475 72.8704 0.885114C73.0037 1.14475 73.0037 1.53421 73.2704 1.79385C73.8038 2.05349 74.2039 2.18331 75.2707 2.18331Z" fill="white"/>
<path d="M83.8049 11.0112C84.4717 12.1795 84.8717 13.6075 84.8717 15.0356C84.8717 15.9443 85.0051 16.7232 85.8052 17.2425C85.9385 17.2425 85.9385 17.3723 86.0719 17.3723C86.3386 17.3723 86.6053 17.2425 86.6053 16.9828C86.7386 16.7232 86.6053 16.3337 86.3386 16.0741C86.2052 16.0741 86.0719 15.9443 86.0719 15.0356C86.0719 13.3479 85.6718 11.6602 84.8717 10.3621C84.0716 8.80422 82.7382 7.50603 81.2713 6.72711C79.9378 5.94819 78.071 5.42891 76.3374 5.29909C75.804 5.29909 75.6707 5.16928 75.6707 5.03946C75.404 4.77982 75.004 4.77982 74.7373 5.03946C74.4706 5.29909 74.4706 5.68855 74.7373 5.94819C75.004 6.33765 75.6707 6.46747 76.2041 6.46747C77.8043 6.59729 79.4044 7.11657 80.6046 7.76566C81.9381 8.54458 83.0048 9.58314 83.8049 11.0112Z" fill="white"/>
<path d="M81.8048 13.9967C81.6714 13.0879 81.5381 12.4388 81.2714 11.9196C80.6046 10.6214 79.5378 9.84244 77.671 9.71262C77.0042 9.5828 77.0042 9.58281 76.8709 9.45299C76.6042 9.19335 76.2041 9.06353 75.9374 9.32317C75.6707 9.5828 75.6707 9.97226 75.8041 10.2319C76.2041 10.6214 76.6042 10.7512 77.4043 10.881C78.7377 11.0108 79.5378 11.5301 79.9379 12.4388C80.2046 12.9581 80.3379 13.4774 80.3379 14.1265C80.4713 14.7756 80.6046 15.2949 81.0047 15.5545C81.138 15.6843 81.2714 15.6843 81.4047 15.6843C81.6714 15.6843 81.8048 15.5545 81.9381 15.4247C82.2048 15.165 82.0715 14.7756 81.8048 14.5159C81.9381 14.5159 81.8048 14.5159 81.8048 13.9967Z" fill="white"/>
<path d="M90.339 23.084C89.939 22.6946 87.8054 21.0069 86.872 20.3578C86.0719 19.8385 85.0051 19.1894 84.3383 18.9298C83.5382 18.5403 82.6048 18.4105 81.8047 18.6702C81.138 18.9298 80.8713 19.1894 80.0712 20.0982C79.6711 20.4876 79.4045 20.8771 79.4045 21.0069C79.4045 21.0069 79.2711 21.1367 79.1378 21.1367C78.7377 21.2665 78.071 21.1367 76.8708 20.6174C75.804 20.0982 75.004 19.4491 73.9372 18.5403C73.0037 17.7614 72.2036 16.7229 71.6702 15.9439C71.0035 14.9054 70.6035 13.6072 70.6035 13.0879C70.6035 12.8283 70.6035 12.4388 70.7368 12.309L70.8702 12.1792C71.0035 12.0494 71.2702 11.9195 71.5369 11.6599C72.737 10.7512 73.1371 10.3617 73.2704 9.71261C73.4038 9.06352 73.2704 8.2846 72.737 7.24604C71.9369 5.68821 69.4033 2.31291 68.3365 1.66381C68.2032 1.53399 67.8031 1.40417 67.6698 1.27435C67.1364 1.14453 66.4697 1.14453 66.0696 1.14453C65.5362 1.27435 64.8695 1.66381 63.536 2.57255C62.8693 3.09182 61.8025 4.13038 61.4024 4.64966C60.7357 5.94785 60.869 6.98641 61.5358 8.67406C62.4692 11.0108 63.6694 13.3476 65.1362 15.6843C65.4029 16.0738 65.5362 16.3334 65.8029 16.7229C66.0696 17.1123 66.3363 17.372 66.603 17.7614C69.0033 21.0069 71.9369 23.7331 75.2707 25.94L75.404 26.0699C75.5374 26.1997 75.804 26.3295 75.9374 26.4593L76.3374 26.719C76.6041 26.8488 76.7375 26.9786 77.0042 27.1084L80.7379 29.1855C81.0046 29.3153 81.2713 29.4452 81.538 29.575L81.9381 29.7048C82.3381 29.8346 82.7382 30.0943 83.1382 30.2241C83.9383 30.4837 84.3383 30.6135 84.8717 30.6135C85.0051 30.6135 85.0051 30.6135 85.1384 30.6135C86.0719 30.6135 86.872 30.2241 87.8054 29.575C88.8722 28.7961 90.339 27.1084 90.7391 26.0699C91.1391 24.9015 91.0058 23.8629 90.339 23.084Z" fill="white"/>
</g>
<path d="M29.9145 2.73111L25.3873 28.1891C25.0458 29.9858 24.1551 30.433 22.8893 29.5865L15.9914 23.5255L12.663 27.3426C12.2946 27.7818 11.9866 28.1491 11.2767 28.1491L11.7723 19.7723L24.5569 5.9972C25.1128 5.40627 24.4363 5.07886 23.693 5.66979L7.888 17.5363L1.08382 14.9969C-0.396218 14.4459 -0.423006 13.2321 1.39189 12.3856L28.0059 0.159759C29.2381 -0.391245 30.3163 0.487167 29.9145 2.73111Z" fill="white"/>
<defs>
<clipPath id="clip0_16_394">
<rect width="30" height="30" fill="white" transform="translate(180)"/>
</clipPath>
<clipPath id="clip1_16_394">
<rect width="30" height="30" fill="white" transform="translate(120)"/>
</clipPath>
<clipPath id="clip2_16_394">
<rect width="30" height="30" fill="white" transform="translate(60)"/>
</clipPath>
</defs>
</svg>
