<svg width="30" height="30" viewBox="0 0 30 30" fill="none" xmlns="http://www.w3.org/2000/svg">
<g clip-path="url(#clip0_16_365)">
<path d="M15.2707 2.18331C18.6044 2.31313 21.0046 3.22186 23.4049 5.03934C26.3386 7.11645 28.0721 10.1023 28.7388 13.7372C28.8722 14.7758 29.0055 15.5547 29.0055 16.7231C29.0055 17.6318 29.1389 17.8915 29.2722 18.1511C29.4056 18.4107 29.6723 18.5406 29.8056 18.5406C29.939 18.5406 30.0723 18.5406 30.0723 18.4107C30.339 18.2809 30.4724 17.8915 30.339 17.502C30.339 17.3722 30.2057 17.2424 30.2057 16.5933C30.2057 15.2951 30.0723 14.5162 29.8056 13.4776C29.0055 9.4532 27.1387 6.20771 23.9383 4.00078C21.2713 2.05349 18.6044 1.14475 15.004 0.885114C13.9372 0.885114 13.8038 0.755295 13.8038 0.755295C13.5371 0.495656 13.1371 0.625475 12.8704 0.885114C13.0037 1.14475 13.0037 1.53421 13.2704 1.79385C13.8038 2.05349 14.2039 2.18331 15.2707 2.18331Z" fill="white"/>
<path d="M23.8049 11.0112C24.4717 12.1795 24.8717 13.6075 24.8717 15.0356C24.8717 15.9443 25.0051 16.7232 25.8052 17.2425C25.9385 17.2425 25.9385 17.3723 26.0719 17.3723C26.3386 17.3723 26.6053 17.2425 26.6053 16.9828C26.7386 16.7232 26.6053 16.3337 26.3386 16.0741C26.2052 16.0741 26.0719 15.9443 26.0719 15.0356C26.0719 13.3479 25.6718 11.6602 24.8717 10.3621C24.0716 8.80422 22.7382 7.50603 21.2713 6.72711C19.9378 5.94819 18.071 5.42891 16.3374 5.29909C15.804 5.29909 15.6707 5.16928 15.6707 5.03946C15.404 4.77982 15.004 4.77982 14.7373 5.03946C14.4706 5.29909 14.4706 5.68855 14.7373 5.94819C15.004 6.33765 15.6707 6.46747 16.2041 6.46747C17.8043 6.59729 19.4044 7.11657 20.6046 7.76566C21.9381 8.54458 23.0048 9.58314 23.8049 11.0112Z" fill="white"/>
<path d="M21.8048 13.9967C21.6714 13.0879 21.5381 12.4388 21.2714 11.9196C20.6046 10.6214 19.5378 9.84244 17.671 9.71262C17.0042 9.5828 17.0042 9.58281 16.8709 9.45299C16.6042 9.19335 16.2041 9.06353 15.9374 9.32317C15.6707 9.5828 15.6707 9.97226 15.8041 10.2319C16.2041 10.6214 16.6042 10.7512 17.4043 10.881C18.7377 11.0108 19.5378 11.5301 19.9379 12.4388C20.2046 12.9581 20.3379 13.4774 20.3379 14.1265C20.4713 14.7756 20.6046 15.2949 21.0047 15.5545C21.138 15.6843 21.2714 15.6843 21.4047 15.6843C21.6714 15.6843 21.8048 15.5545 21.9381 15.4247C22.2048 15.165 22.0715 14.7756 21.8048 14.5159C21.9381 14.5159 21.8048 14.5159 21.8048 13.9967Z" fill="white"/>
<path d="M30.339 23.084C29.939 22.6946 27.8054 21.0069 26.872 20.3578C26.0719 19.8385 25.0051 19.1894 24.3383 18.9298C23.5382 18.5403 22.6048 18.4105 21.8047 18.6702C21.138 18.9298 20.8713 19.1894 20.0712 20.0982C19.6711 20.4876 19.4045 20.8771 19.4045 21.0069C19.4045 21.0069 19.2711 21.1367 19.1378 21.1367C18.7377 21.2665 18.071 21.1367 16.8708 20.6174C15.804 20.0982 15.004 19.4491 13.9372 18.5403C13.0037 17.7614 12.2036 16.7229 11.6702 15.9439C11.0035 14.9054 10.6035 13.6072 10.6035 13.0879C10.6035 12.8283 10.6035 12.4388 10.7368 12.309L10.8702 12.1792C11.0035 12.0494 11.2702 11.9195 11.5369 11.6599C12.737 10.7512 13.1371 10.3617 13.2704 9.71261C13.4038 9.06352 13.2704 8.2846 12.737 7.24604C11.9369 5.68821 9.40333 2.31291 8.33654 1.66381C8.20319 1.53399 7.80315 1.40417 7.6698 1.27435C7.13641 1.14453 6.46967 1.14453 6.06962 1.14453C5.53623 1.27435 4.86949 1.66381 3.536 2.57255C2.86926 3.09182 1.80248 4.13038 1.40243 4.64966C0.735689 5.94785 0.869037 6.98641 1.53578 8.67406C2.46922 11.0108 3.66935 13.3476 5.13618 15.6843C5.40288 16.0738 5.53623 16.3334 5.80292 16.7229C6.06962 17.1123 6.33632 17.372 6.60301 17.7614C9.00328 21.0069 11.9369 23.7331 15.2707 25.94L15.404 26.0699C15.5374 26.1997 15.804 26.3295 15.9374 26.4593L16.3374 26.719C16.6041 26.8488 16.7375 26.9786 17.0042 27.1084L20.7379 29.1855C21.0046 29.3153 21.2713 29.4452 21.538 29.575L21.9381 29.7048C22.3381 29.8346 22.7382 30.0943 23.1382 30.2241C23.9383 30.4837 24.3383 30.6135 24.8717 30.6135C25.0051 30.6135 25.0051 30.6135 25.1384 30.6135C26.0719 30.6135 26.872 30.2241 27.8054 29.575C28.8722 28.7961 30.339 27.1084 30.7391 26.0699C31.1391 24.9015 31.0058 23.8629 30.339 23.084Z" fill="white"/>
</g>
<defs>
<clipPath id="clip0_16_365">
<rect width="30" height="30" fill="white"/>
</clipPath>
</defs>
</svg>
