<svg width="105" height="166" viewBox="0 0 105 166" fill="none" xmlns="http://www.w3.org/2000/svg">
<g clip-path="url(#clip0_159_170)">
<path d="M52.4972 0C23.5043 0 0 23.349 0 52.1505C0 80.9519 23.5043 104.306 52.4972 104.306C81.4901 104.306 105 80.9574 105 52.1505C105 23.3435 81.4957 0 52.4972 0ZM52.4972 79.9292C37.0552 79.9292 24.5394 67.4905 24.5394 52.1505C24.5394 36.8105 37.0552 24.3773 52.4972 24.3773C67.9392 24.3773 80.4606 36.8105 80.4606 52.1505C80.4606 67.4905 67.9392 79.9292 52.4972 79.9292Z" fill="#FFE38A"/>
<path d="M59.4572 112.188V140.578H41.5981V111.516C45.1118 112.255 48.7597 112.644 52.4971 112.644C54.8581 112.644 57.18 112.488 59.4572 112.188Z" fill="#FFE38A"/>
<path d="M89.5243 146.997H41.5981V166H89.5243V146.997Z" fill="#FFE38A"/>
<path d="M84.9421 124.198H41.5981V143.201H84.9421V124.198Z" fill="#FFE38A"/>
</g>
<defs>
<clipPath id="clip0_159_170">
<rect width="105" height="166" fill="white"/>
</clipPath>
</defs>
</svg>
