<svg width="121" height="166" viewBox="0 0 121 166" fill="none" xmlns="http://www.w3.org/2000/svg">
<g clip-path="url(#clip0_159_167)">
<path d="M10.4854 52.1505C10.4854 24.1737 33.1041 1.5 60.9961 1.5C88.8939 1.5 111.512 24.1683 111.512 52.1505C111.512 80.1327 88.8883 102.806 60.9961 102.806C33.1043 102.806 10.4854 80.1275 10.4854 52.1505ZM31.7973 52.1505C31.7973 68.3147 44.8646 81.4292 60.9961 81.4292C77.1272 81.4292 90.2005 68.3151 90.2005 52.1505C90.2005 35.9854 77.1269 22.8773 60.9961 22.8773C44.865 22.8773 31.7973 35.9858 31.7973 52.1505Z" stroke="#FFD337" stroke-width="3"/>
<path d="M1.52049 164.5C2.31563 135.425 26.1543 112.021 55.3311 112.021H65.6689C94.8458 112.021 118.684 135.425 119.48 164.5H97.0831C96.2995 147.812 82.5123 134.47 65.6689 134.47H55.3311C38.4877 134.47 24.7005 147.812 23.9169 164.5H1.52049Z" stroke="#FFD337" stroke-width="3"/>
</g>
<defs>
<clipPath id="clip0_159_167">
<rect width="121" height="166" fill="white"/>
</clipPath>
</defs>
</svg>
