<svg width="98" height="165" viewBox="0 0 98 165" fill="none" xmlns="http://www.w3.org/2000/svg">
<g clip-path="url(#clip0_159_165)">
<path d="M49 0C21.9378 0 0 21.7952 0 48.6814C0 68.946 27.827 130.943 41.5367 160.269C44.4896 166.575 53.5104 166.575 56.4577 160.269C70.173 130.943 98 68.946 98 48.6814C98 21.7952 76.0622 0 49 0ZM49 78.08C32.6555 78.08 19.4091 64.9197 19.4091 48.6814C19.4091 32.4432 32.6555 19.2885 49 19.2885C65.3445 19.2885 78.5853 32.4487 78.5853 48.6814C78.5853 64.9141 65.3389 78.08 49 78.08Z" fill="#FFE38A"/>
</g>
<defs>
<clipPath id="clip0_159_165">
<rect width="98" height="165" fill="white"/>
</clipPath>
</defs>
</svg>
