<svg width="191" height="56" viewBox="0 0 191 56" fill="none" xmlns="http://www.w3.org/2000/svg">
<path fill-rule="evenodd" clip-rule="evenodd" d="M20.4474 30.173L20.469 30.1622H21.926H42.4042C42.4042 13.7136 29.0644 0.37915 12.6211 0.37915V7.69628V12.5762V22.7151L10.3139 14.0114C8.92736 14.9863 7.67084 16.0858 6.77177 17.2178C4.90863 19.5629 3.6846 21.1498 2.39557 24.4699C0.451199 29.4635 0.386208 35.1667 2.01645 40.3823C2.73137 42.6625 3.82 44.8127 5.19027 46.7408C4.25871 40.4202 8.15286 33.2981 15.0854 30.9638C16.6399 30.4384 18.3459 30.1568 20.1874 30.173H20.4474ZM30.5104 18.1277C31.9024 18.1277 33.0289 19.2542 33.0289 20.6461C33.0289 22.0381 31.9024 23.1646 30.5104 23.1646C29.1185 23.1646 27.992 22.0381 27.992 20.6461C27.992 19.2542 29.1185 18.1277 30.5104 18.1277Z" fill="#FACE30"/>
<path fill-rule="evenodd" clip-rule="evenodd" d="M19.1584 30.98H19.1422C9.25783 34.6196 6.49562 44.4606 9.99983 50.6349C10.3573 51.2632 10.6931 51.8536 11.0181 52.4331C14.154 54.5291 17.7882 55.7802 21.6606 55.9752C26.3022 56.2027 30.7976 55.0816 33.9335 52.4331C38.4668 48.6039 39.6258 41.6063 36.3437 36.6398C34.8867 34.4354 32.9153 33.2656 30.6513 32.9623C27.8458 32.5886 25.0944 33.2547 23.6538 36.3419C21.3194 37.0839 19.608 39.2774 19.608 41.8501V45.4734H20.9782V48.5985H23.3451V45.4734H27.4179V48.5985H29.7848V45.4734H31.155V41.8501C31.155 39.4724 29.6981 37.4197 27.64 36.5369C28.4687 35.5945 29.6819 35.3833 30.9113 35.7461C30.1152 34.9283 29.7144 34.6142 28.6149 34.3759C34.6647 33.4985 36.7282 41.7959 34.7351 46.6758C34.0093 48.4468 32.7474 49.9634 31.1605 51.0466C19.9329 58.6724 5.25534 40.626 19.1584 30.98Z" fill="black"/>
<path fill-rule="evenodd" clip-rule="evenodd" d="M59.0641 21.5016H53.5776C52.9006 21.5016 52.6569 21.2958 52.6569 20.7867V19.9256C52.6569 19.4164 52.9061 19.2106 53.5831 19.2106H59.5787L62.7796 16.573H52.4024C49.716 16.573 48.6382 17.6129 48.6382 19.6223V21.3879C48.6382 23.3973 49.7106 24.4317 52.3969 24.4317H57.8834C58.5604 24.4317 58.8042 24.6375 58.8042 25.1467V26.349C58.8042 26.8581 58.5604 27.064 57.8834 27.064H48.7465V29.8803H59.0641C61.7505 29.8803 62.8283 28.8458 62.8283 26.8365V24.5455C62.8283 22.5361 61.7505 21.5016 59.0641 21.5016Z" fill="black"/>
<path fill-rule="evenodd" clip-rule="evenodd" d="M75.7289 16.573H70.654C67.3611 16.573 65.6333 18.3603 65.6333 21.22V25.2387C65.6279 28.0984 67.361 29.8803 70.6486 29.8803H75.7235C79.0165 29.8803 80.7442 28.0984 80.7442 25.2387V21.22C80.7496 18.3657 79.0165 16.573 75.7289 16.573ZM76.7255 25.0546C76.72 26.3869 76.0647 27.064 74.7107 27.064H71.6614C70.3074 27.064 69.6521 26.3869 69.6521 25.0546L69.6575 21.22C69.6575 19.8876 70.3128 19.2106 71.6668 19.2106H74.7107C76.0647 19.2106 76.72 19.8876 76.72 21.22V25.0546H76.7255Z" fill="black"/>
<path fill-rule="evenodd" clip-rule="evenodd" d="M87.5798 27.064L87.5852 16.573H83.5665L83.5557 29.8857H96.5976L96.603 27.064H87.5798Z" fill="black"/>
<path fill-rule="evenodd" clip-rule="evenodd" d="M110.089 16.573H106.184L98.4824 29.8803H101.754L103.633 26.4573H111.232L113.165 29.8803H117.737L110.089 16.573ZM105.123 23.7222L107.359 19.6385L109.672 23.7222H105.123Z" fill="black"/>
<path fill-rule="evenodd" clip-rule="evenodd" d="M130.383 24.3559C133.166 23.7926 133.973 22.2545 133.979 19.3189V16.573H119.902L119.892 29.8803H123.916V24.6213H125.968L130.307 29.8803H135.116L130.383 24.3559ZM129.841 19.6602C129.841 21.5558 129.483 21.8753 126.738 21.8753H123.921V19.2106H129.841V19.6602Z" fill="black"/>
<path fill-rule="evenodd" clip-rule="evenodd" d="M152.129 16.573V21.5016H146.604V16.573H140.555L142.586 18.1545L142.575 29.8857H146.599V24.2422H152.129L152.123 29.8857H156.148L156.153 16.573H152.129Z" fill="black"/>
<path fill-rule="evenodd" clip-rule="evenodd" d="M169.086 16.573L169.081 25.0546C169.081 26.3869 168.42 27.064 167.071 27.064H164.997C163.648 27.064 162.987 26.3869 162.993 25.0546L162.998 16.573H158.974L158.969 25.2387C158.969 28.0984 160.696 29.8803 163.989 29.8803H168.089C171.377 29.8803 173.11 28.0984 173.11 25.2387L173.116 16.573H169.086Z" fill="black"/>
<path fill-rule="evenodd" clip-rule="evenodd" d="M188.216 21.751H188.059C189.944 20.7923 190.545 18.9075 190.307 16.5786H175.927L175.917 29.8859H187.231C189.923 29.8859 190.995 28.8515 190.995 26.8421L191 24.5132C191 22.7421 190.096 21.751 188.216 21.751ZM179.951 19.2108H185.909C185.758 20.6948 184.783 21.5018 182.919 21.5018H179.946L179.951 19.2108ZM186.971 26.3547C186.971 26.8638 186.727 27.0696 186.05 27.0696H179.941V24.2478H186.05C186.727 24.2478 186.971 24.4536 186.971 24.9681V26.3547Z" fill="black"/>
<path fill-rule="evenodd" clip-rule="evenodd" d="M123.748 35.9736C122.914 35.9736 122.226 36.2499 121.673 36.7969C121.121 37.3439 120.839 38.0317 120.839 38.8496C120.839 39.6674 121.116 40.3552 121.673 40.9023C122.226 41.4493 122.919 41.7255 123.748 41.7255C124.333 41.7255 124.864 41.5847 125.329 41.2977C125.795 41.0052 126.153 40.6152 126.38 40.1332L125.161 39.6837C124.885 40.1982 124.371 40.5231 123.742 40.5231C123.293 40.5231 122.908 40.3661 122.6 40.0465C122.291 39.7216 122.139 39.3262 122.139 38.8496C122.139 38.373 122.291 37.9776 122.6 37.6634C122.908 37.3385 123.287 37.1814 123.742 37.1814C124.371 37.1814 124.885 37.5064 125.161 38.0209L126.38 37.5714C126.153 37.0894 125.795 36.6994 125.329 36.4123C124.864 36.1144 124.338 35.9736 123.748 35.9736Z" fill="black"/>
<path fill-rule="evenodd" clip-rule="evenodd" d="M129.7 41.623V39.397H132.1V41.623H133.351V36.0769H132.1V38.2379H129.7V36.0769H128.438V41.623H129.7Z" fill="black"/>
<path fill-rule="evenodd" clip-rule="evenodd" d="M138.62 36.0769H137.58L135.246 41.6176H136.557L136.936 40.686H139.254L139.633 41.6176H140.938L138.62 36.0769ZM137.413 39.5594L138.111 37.8588L138.81 39.5594H137.413Z" fill="black"/>
<path fill-rule="evenodd" clip-rule="evenodd" d="M146.458 39.5596C147.064 39.2401 147.454 38.6443 147.454 37.9348C147.454 37.4095 147.265 36.9708 146.88 36.6187C146.501 36.2558 146.024 36.0825 145.456 36.0825H142.856V41.6232H144.118V39.8034H145.196L146.268 41.6232H147.665L146.458 39.5596ZM145.45 38.6497H144.112V37.2361H145.45C145.856 37.2361 146.149 37.5394 146.149 37.9402C146.149 38.341 145.856 38.6497 145.45 38.6497Z" fill="black"/>
<path fill-rule="evenodd" clip-rule="evenodd" d="M149.36 38.8498C149.36 39.6676 149.637 40.3554 150.194 40.9025C150.758 41.4495 151.44 41.7257 152.253 41.7257C153.087 41.7257 153.774 41.4495 154.321 40.8862C154.869 40.3229 155.145 39.6351 155.145 38.801C155.145 38.6981 155.139 38.5952 155.123 38.4977H152.112V39.5647H153.699C153.471 40.1334 152.881 40.5179 152.247 40.5179C151.798 40.5179 151.424 40.3609 151.121 40.0359C150.817 39.7109 150.671 39.3155 150.671 38.8498C150.671 38.3731 150.828 37.9778 151.137 37.6636C151.446 37.3387 151.841 37.1816 152.318 37.1816C152.946 37.1816 153.477 37.4903 153.753 38.0211L154.971 37.5716C154.733 37.0787 154.376 36.6942 153.904 36.4071C153.428 36.1201 152.897 35.9792 152.318 35.9792C151.478 35.9792 150.774 36.2555 150.211 36.8025C149.642 37.3441 149.36 38.0265 149.36 38.8498Z" fill="black"/>
<path fill-rule="evenodd" clip-rule="evenodd" d="M157.252 36.0769V41.623H161.433V40.4639H158.508V39.4024H160.935V38.2488H158.508V37.236H161.395V36.0769H157.252Z" fill="black"/>
<path fill-rule="evenodd" clip-rule="evenodd" d="M92.172 37.2735C92.0691 36.8998 91.8416 36.5911 91.4679 36.3473C91.105 36.1036 90.6663 35.9736 90.168 35.9736C89.6048 35.9736 89.1444 36.1307 88.7923 36.4503C88.4457 36.759 88.267 37.1706 88.267 37.6797C88.267 38.0047 88.3699 38.2917 88.489 38.4867C88.6082 38.6871 88.8844 38.8767 89.0523 38.9958C89.139 39.05 89.2635 39.1041 89.4314 39.18L89.8214 39.3208C89.9189 39.3424 90.0597 39.3912 90.2384 39.4453L90.3197 39.467C90.6392 39.5699 90.8288 39.6349 91.0075 39.792C91.105 39.8732 91.1483 39.9599 91.1483 40.0628C91.1483 40.3553 90.7855 40.5719 90.3305 40.5719C89.8322 40.5719 89.4531 40.3282 89.3664 40.0086L88.1045 40.3119C88.2236 40.7344 88.4782 41.0702 88.879 41.3356C89.2852 41.5955 89.7672 41.7309 90.3305 41.7309C90.9425 41.7309 91.4408 41.5739 91.8254 41.2489C92.2153 40.9239 92.4049 40.4961 92.4049 39.9599C92.3724 39.2775 92.1016 38.8929 91.6466 38.6438C91.3325 38.4542 91.1537 38.4 90.8125 38.2971C90.3684 38.1617 90.0922 38.0751 89.9785 38.0372C89.6698 37.9126 89.5181 37.761 89.5181 37.5931C89.5181 37.3331 89.8052 37.1435 90.1843 37.1435C90.558 37.1435 90.8505 37.3331 90.9209 37.5768L92.172 37.2735ZM98.0863 39.3749C98.0863 39.7161 97.9672 40.0032 97.7397 40.2307C97.5122 40.4582 97.2252 40.5719 96.884 40.5719C96.5428 40.5719 96.2503 40.4636 96.0228 40.2307C95.7953 39.9978 95.6816 39.7161 95.6816 39.3749V36.082H94.4305V39.3858C94.4305 40.052 94.6688 40.6044 95.1346 41.0593C95.6004 41.5089 96.1853 41.7309 96.884 41.7309C97.5826 41.7309 98.1676 41.5089 98.6334 41.0593C99.0991 40.6098 99.3375 40.052 99.3375 39.3858V36.082H98.0863V39.3749ZM102.771 39.8028H104.033C104.602 39.8028 105.078 39.6295 105.458 39.272C105.848 38.9146 106.037 38.4704 106.037 37.9397C106.037 37.4089 105.848 36.9756 105.458 36.6181C105.078 36.2607 104.602 36.082 104.033 36.082H101.515V41.628H102.777V39.8028H102.771ZM104.028 37.2356C104.434 37.2356 104.726 37.5389 104.726 37.9397C104.726 38.3405 104.434 38.6438 104.028 38.6438H102.766V37.2356H104.028ZM108.106 36.0765V41.6226H112.287V40.4636H109.363V39.402H111.789V38.243H109.363V37.2302H112.244V36.0711H108.106V36.0765ZM114.351 36.0765V41.6226H115.613V39.8028H116.691L117.758 41.6226H119.149L117.953 39.5645C118.565 39.2504 118.949 38.6438 118.949 37.9397C118.949 37.4089 118.76 36.9756 118.37 36.6181C117.99 36.2607 117.514 36.082 116.945 36.082H114.351V36.0765ZM116.945 37.2356C117.351 37.2356 117.644 37.5389 117.644 37.9397C117.644 38.3405 117.351 38.6438 116.945 38.6438H115.607V37.2356H116.945Z" fill="black"/>
<path fill-rule="evenodd" clip-rule="evenodd" d="M84.0967 39.3752H86.3931V38.3245H84.0967V39.3752Z" fill="black"/>
<path fill-rule="evenodd" clip-rule="evenodd" d="M78.1987 36.0769V41.623H82.3799V40.4639H79.4607V39.4024H81.8817V38.2488H79.4607V37.236H82.342V36.0769H78.1987Z" fill="black"/>
</svg>
