<svg width="160" height="100" viewBox="0 0 160 100" fill="none" xmlns="http://www.w3.org/2000/svg">
<g clip-path="url(#clip0_211_175)">
<path d="M21.451 25.7979L26.5295 44.9549H5.20844L0 25.7979H21.451Z" fill="#010101"/>
<path d="M49.9187 44.9549H29.9296L24.8511 25.7979H44.851L49.9187 44.9549Z" fill="#010101"/>
<path d="M74.1091 44.9549H53.3295L48.251 25.7979H69.0306L74.1091 44.9549Z" fill="#010101"/>
<path d="M27.5366 48.7871L31.0775 62.1204H9.87554L6.24805 48.7871H27.5366Z" fill="#010101"/>
<path d="M50.9364 48.7871L54.4664 62.1204H34.4773L30.9473 48.7871H50.9364Z" fill="#010101"/>
<path d="M75.1164 48.7871L78.6573 62.1204H57.8777L54.3477 48.7871H75.1164Z" fill="#010101"/>
<path d="M32.0844 65.9512L35.9284 80.4467H14.8673L10.9258 65.9512H32.0844Z" fill="#010101"/>
<path d="M55.4843 65.9512L59.3283 80.4467H39.3284L35.4951 65.9512H55.4843Z" fill="#010101"/>
<path d="M79.6643 65.9512L83.5084 80.4467H62.7396L58.8955 65.9512H79.6643Z" fill="#010101"/>
<path d="M107.439 80.4467H86.9084L83.0752 65.9512H103.497L107.439 80.4467Z" fill="#010101"/>
<path d="M36.9462 84.2783L41.1043 99.9999H20.1839L15.9067 84.2783H36.9462Z" fill="#010101"/>
<path d="M60.3358 84.2783L64.5047 99.9999H44.5156L40.3467 84.2783H60.3358Z" fill="#010101"/>
<path d="M84.5262 84.2783L88.6843 99.9999H67.9155L63.7466 84.2783H84.5262Z" fill="#010101"/>
<path d="M112.756 99.9999H92.0952L87.9263 84.2783H108.478L112.756 99.9999Z" fill="#010101"/>
<path d="M111.326 33.04H95.2134L98.581 45.4794H114.629L111.326 33.04Z" fill="#F8BC17"/>
<path d="M110.308 29.2084L107.211 17.5098H91.0229L94.1848 29.2084H110.308Z" fill="#F8BC17"/>
<path d="M74.1743 29.2084H90.7741L87.6122 17.5098H70.9907L74.1743 29.2084Z" fill="#F8BC17"/>
<path d="M91.8132 33.04H75.2134L78.5918 45.4794H95.17L91.8132 33.04Z" fill="#F8BC17"/>
<path d="M105.977 0L109.605 13.6782H125.815L122.198 0H105.977Z" fill="#F8BC17"/>
<path d="M118.906 61.6222L115.636 49.3105H99.6206L102.945 61.6222H118.906Z" fill="#F8BC17"/>
<path d="M129.929 29.2084L126.832 17.5098H110.611L113.719 29.2084H129.929Z" fill="#F8BC17"/>
<path d="M89.9836 13.6782H106.194L102.577 0H86.2803L89.9836 13.6782Z" fill="#F8BC17"/>
<path d="M152.106 33.04H134.347L137.65 45.4794H155.495L152.106 33.04Z" fill="#F8BC17"/>
<path d="M96.2099 49.3105H79.6426L82.9885 61.6222H99.5343L96.2099 49.3105Z" fill="#F8BC17"/>
<path d="M86.5725 13.6782L82.8801 0H66.2261L69.951 13.6782H86.5725Z" fill="#F8BC17"/>
<path d="M138.668 49.3105L141.927 61.6222H159.881L156.535 49.3105H138.668Z" fill="#F8BC17"/>
<path d="M114.726 33.04L118.029 45.4794H134.25L130.947 33.04H114.726Z" fill="#F8BC17"/>
<path d="M135.257 49.3105H119.047L122.306 61.6222H138.527L135.257 49.3105Z" fill="#F8BC17"/>
<path d="M129.226 13.6782H146.843L143.118 0H125.598L129.226 13.6782Z" fill="#F8BC17"/>
<path d="M130.232 17.5098L133.34 29.2084H151.066L147.883 17.5098H130.232Z" fill="#F8BC17"/>
</g>
<defs>
<clipPath id="clip0_211_175">
<rect width="159.881" height="100" fill="white"/>
</clipPath>
</defs>
</svg>
