<svg width="143" height="100" viewBox="0 0 143 100" fill="none" xmlns="http://www.w3.org/2000/svg">
<g clip-path="url(#clip0_211_207)">
<path d="M106.899 55.7792C119.496 55.7792 129.708 46.0012 129.708 33.9394C129.708 21.8776 119.496 12.0996 106.899 12.0996C94.3018 12.0996 84.0898 21.8776 84.0898 33.9394C84.0898 46.0012 94.3018 55.7792 106.899 55.7792Z" fill="#F8BC17"/>
<path d="M112.701 67.4146L111.962 63.1078C115.913 62.4788 119.645 61.1509 123.039 59.1591L125.42 62.8806C121.515 65.1695 117.236 66.6982 112.701 67.4146ZM134.197 55.5949L130.684 52.8081C133.248 49.8554 135.146 46.5183 136.35 42.8754L140.702 44.1945C139.324 48.3703 137.135 52.2054 134.197 55.5949ZM71.7273 38.1143C71.627 37.3194 71.554 36.5157 71.5083 35.712C71.3168 32.1477 71.6999 28.5922 72.6579 25.1502L77.0646 26.2772C76.2253 29.2736 75.8877 32.3748 76.061 35.4761C76.0975 36.175 76.1614 36.8738 76.2526 37.5727L71.7273 38.1056V38.1143ZM142.335 33.1785L137.773 33.2746C137.773 32.9776 137.755 32.6806 137.737 32.3836C137.545 28.863 136.706 25.4385 135.255 22.2062L139.443 20.4765C141.112 24.1806 142.07 28.1117 142.289 32.1477C142.308 32.4884 142.317 32.8291 142.326 33.1698L142.335 33.1785ZM81.2524 17.4626L77.4661 15.0253C78.3967 13.6975 79.4368 12.422 80.559 11.2339C82.4932 9.18099 84.6646 7.36392 87.0367 5.8264L89.5914 9.44306C87.5294 10.7797 85.6317 12.3696 83.9438 14.1605C82.9676 15.2 82.0553 16.3182 81.2432 17.4714L81.2524 17.4626ZM129.781 14.0644C129.088 13.3305 128.339 12.6229 127.573 11.959C125.383 10.072 122.938 8.49959 120.32 7.28529L122.3 3.35413C125.319 4.74314 128.12 6.55148 130.629 8.71798C131.514 9.48674 132.372 10.2992 133.166 11.1378L129.79 14.0731L129.781 14.0644ZM98.7971 5.39834L97.6019 1.17889C101.981 0.0432221 106.625 -0.280007 111.132 0.235412L110.594 4.56843C106.662 4.12289 102.62 4.40244 98.7971 5.3896V5.39834Z" fill="#F8BC17"/>
<path d="M49.3106 59.0114H26.0728C25.9633 59.0114 25.8629 58.9415 25.8355 58.8454L20.8175 43.8633C20.7628 43.7061 20.8905 43.5488 21.0548 43.5488H44.2926C44.4021 43.5488 44.5025 43.6187 44.5298 43.7148L49.5478 58.6969C49.6026 58.8542 49.4748 59.0114 49.3106 59.0114Z" fill="black"/>
<path d="M77.6939 59.0114H54.4561C54.3466 59.0114 54.2462 58.9415 54.2188 58.8454L49.2008 43.8633C49.1461 43.7061 49.2738 43.5488 49.4381 43.5488H72.6759C72.7854 43.5488 72.8858 43.6187 72.9131 43.7148L77.9311 58.6969C77.9859 58.8542 77.8581 59.0114 77.6939 59.0114Z" fill="black"/>
<path d="M62.4761 99.9997H39.2383C39.1288 99.9997 39.0284 99.9298 39.0011 99.8337L33.9831 84.8516C33.9283 84.6944 34.0561 84.5371 34.2203 84.5371H57.4581C57.5676 84.5371 57.668 84.607 57.6954 84.7031L62.7134 99.6852C62.7681 99.8424 62.6404 99.9997 62.4761 99.9997Z" fill="black"/>
<path d="M90.8687 99.9997H67.6309C67.5214 99.9997 67.421 99.9298 67.3936 99.8337L62.3757 84.8516C62.3209 84.6944 62.4486 84.5371 62.6129 84.5371H85.8507C85.9602 84.5371 86.0606 84.607 86.0879 84.7031L91.1059 99.6852C91.1607 99.8424 91.0329 99.9997 90.8687 99.9997Z" fill="black"/>
<path d="M119.261 99.9997H96.0234C95.9139 99.9997 95.8136 99.9298 95.7862 99.8337L90.7682 84.8516C90.7135 84.6944 90.8412 84.5371 91.0054 84.5371H114.243C114.353 84.5371 114.453 84.607 114.481 84.7031L119.499 99.6852C119.553 99.8424 119.426 99.9997 119.261 99.9997Z" fill="black"/>
<path d="M55.898 79.5055H32.6602C32.5507 79.5055 32.4503 79.4357 32.4229 79.3396L27.4049 64.3575C27.3502 64.2002 27.4779 64.043 27.6422 64.043H50.88C50.9895 64.043 51.0899 64.1129 51.1172 64.209L56.1352 79.191C56.19 79.3483 56.0622 79.5055 55.898 79.5055Z" fill="black"/>
<path d="M84.2813 79.5055H61.0435C60.934 79.5055 60.8336 79.4357 60.8062 79.3396L55.7883 64.3575C55.7335 64.2002 55.8612 64.043 56.0255 64.043H79.2633C79.3728 64.043 79.4732 64.1129 79.5005 64.209L84.5185 79.191C84.5733 79.3483 84.4455 79.5055 84.2813 79.5055Z" fill="black"/>
<path d="M112.674 79.5055H89.436C89.3266 79.5055 89.2262 79.4357 89.1988 79.3396L84.1808 64.3575C84.1261 64.2002 84.2538 64.043 84.418 64.043H107.656C107.765 64.043 107.866 64.1129 107.893 64.209L112.911 79.191C112.966 79.3483 112.838 79.5055 112.674 79.5055Z" fill="black"/>
<path d="M6.77624 99.7294H0.334961L18.8742 43.54H25.3154L6.77624 99.7294Z" fill="black"/>
<path d="M106.087 59.0114H82.8491C82.7396 59.0114 82.6393 58.9415 82.6119 58.8454L77.5939 43.8633C77.5392 43.7061 77.6669 43.5488 77.8311 43.5488H101.069C101.178 43.5488 101.279 43.6187 101.306 43.7148L106.324 58.6969C106.379 58.8542 106.251 59.0114 106.087 59.0114Z" fill="black"/>
</g>
<defs>
<clipPath id="clip0_211_207">
<rect width="142" height="100" fill="white" transform="translate(0.334961)"/>
</clipPath>
</defs>
</svg>
