<svg width="135" height="100" viewBox="0 0 135 100" fill="none" xmlns="http://www.w3.org/2000/svg">
<g clip-path="url(#clip0_211_220)">
<path d="M89.7131 50.5445V59.1864L76.8986 62.0632C76.1054 65.9027 74.5305 69.4213 72.627 72.6305L79.7424 83.8282L73.7261 89.9142L62.6564 82.7164C59.4953 84.8024 56.0056 86.2351 52.2099 87.0374L49.366 100H40.823L37.9791 87.0374C34.1835 86.2351 30.7051 84.6305 27.5326 82.7164L16.4516 89.9142L9.9594 83.8282L17.0748 72.6305C15.0127 69.4328 13.5964 65.9142 12.8033 62.0632L-0.0112305 59.1864V50.5445L12.8033 47.6677C13.5964 43.8282 15.1826 40.3096 17.0748 37.1004L9.9594 25.7422L15.9758 19.6563L27.0568 26.854C30.2179 24.768 33.6963 23.3354 37.5032 22.5331L40.3471 9.57031H48.8902L51.734 22.5331C55.5297 23.3354 59.0081 24.9285 62.1805 26.854L73.2615 19.6563L79.5952 25.7422L72.4797 36.9399C74.5419 40.1376 75.9581 43.6677 76.7513 47.5073L89.7244 50.5445H89.7131ZM66.9279 54.8654C66.9279 42.5445 56.9573 32.4586 44.9359 32.4586C32.9145 32.4586 22.7852 42.5445 22.7852 54.8654C22.7852 67.1864 32.7559 77.1119 44.9359 77.1119C57.1159 77.1119 66.9279 67.1864 66.9279 54.8654Z" fill="#010101"/>
<path d="M118.628 45.8457H134.921L122.378 57.7082L118.628 45.8457Z" fill="#F8BC17"/>
<path d="M113.971 42.4069L119.104 58.6705H55.4615C55.065 58.6705 54.7137 58.4069 54.6004 58.0287L36.574 1.20344C36.3927 0.60745 36.8233 0 37.4464 0H120.882C121.279 0 121.63 0.26361 121.755 0.641834L135 42.4069H113.971Z" fill="#F8BC17"/>
<path d="M113.212 13.0546H56.5608L55.4731 9.61621H112.124L113.212 13.0546Z" fill="white"/>
<path d="M116.487 23.3693H59.8353L58.7476 19.9424C58.7476 19.9424 58.7816 19.9424 58.8042 19.9424H115.399L116.487 23.3808V23.3693Z" fill="white"/>
<path d="M120.123 34.831H63.4721L62.373 31.3926H119.024L120.123 34.831Z" fill="white"/>
</g>
<defs>
<clipPath id="clip0_211_220">
<rect width="135" height="100" fill="white"/>
</clipPath>
</defs>
</svg>
